<svg xmlns="http://www.w3.org/2000/svg" width="42" height="40" fill="none" viewBox="0 0 42 40"><path stroke="#000" stroke-linecap="round" stroke-linejoin="round" stroke-width="2" d="m11 12.429-10 10 10 10m20-20 10 10-10 10"/><path fill="#000" d="m24.535 5.043-8.587 32.046a.816.816 0 1 1-1.577-.422L22.958 4.62a.816.816 0 0 1 1.577.423"/><path fill="#D9D9D9" d="M22.958 4.62a.816.816 0 0 1 1.577.423l-1.046 3.903-1.577-.423z"/><path stroke="#000" stroke-linecap="round" d="m25.695 7.022 3.154.846M17.81 4.91l3.154.845m-1.318-4.544 1.637 2.81m-3.696 4.876 2.822-1.615m4.867 1.304 1.637 2.81m-.763-6.072 2.823-1.614"/></svg>